<mxfile host="app.diagrams.net" modified="2020-11-04T08:20:31.562Z" agent="5.0 (Windows NT 10.0; Win64; x64) AppleWebKit/537.36 (KHTML, like Gecko) Chrome/86.0.4240.111 Safari/537.36" etag="d0ecqqfqPNOkym7njoeQ" version="13.8.9-1" type="github">
  <diagram id="JF__Zj-DXKbBX88kCNgF" name="Page-1">
    <mxGraphModel dx="1422" dy="705" grid="1" gridSize="10" guides="1" tooltips="1" connect="1" arrows="1" fold="1" page="1" pageScale="1" pageWidth="850" pageHeight="1100" math="0" shadow="0">
      <root>
        <mxCell id="0" />
        <mxCell id="1" parent="0" />
        <mxCell id="GnVWnsMx5IgDR0cQtzLm-49" value="" style="group" vertex="1" connectable="0" parent="1">
          <mxGeometry x="425" y="250" width="290" height="440" as="geometry" />
        </mxCell>
        <mxCell id="GnVWnsMx5IgDR0cQtzLm-22" value="" style="group" vertex="1" connectable="0" parent="GnVWnsMx5IgDR0cQtzLm-49">
          <mxGeometry y="210" width="290" height="230" as="geometry" />
        </mxCell>
        <mxCell id="GnVWnsMx5IgDR0cQtzLm-2" value="&lt;b style=&quot;text-align: right&quot;&gt;&lt;font style=&quot;font-size: 15px&quot;&gt;&amp;nbsp; &amp;nbsp; &amp;nbsp;Thread 2&lt;/font&gt;&lt;/b&gt;" style="rounded=0;whiteSpace=wrap;html=1;align=center;" vertex="1" parent="GnVWnsMx5IgDR0cQtzLm-22">
          <mxGeometry width="290" height="230" as="geometry" />
        </mxCell>
        <mxCell id="GnVWnsMx5IgDR0cQtzLm-1" value="&lt;font size=&quot;1&quot;&gt;&lt;b style=&quot;font-size: 9px&quot;&gt;Message Queue&lt;/b&gt;&lt;/font&gt;" style="shape=cylinder3;whiteSpace=wrap;html=1;boundedLbl=1;backgroundOutline=1;size=15;direction=north;align=center;" vertex="1" parent="GnVWnsMx5IgDR0cQtzLm-22">
          <mxGeometry x="195" y="60" width="65.01" height="49" as="geometry" />
        </mxCell>
        <mxCell id="GnVWnsMx5IgDR0cQtzLm-19" value="&lt;b&gt;Task 2&lt;/b&gt;" style="shape=process;whiteSpace=wrap;html=1;backgroundOutline=1;" vertex="1" parent="GnVWnsMx5IgDR0cQtzLm-22">
          <mxGeometry x="15" y="90" width="93.75" height="38" as="geometry" />
        </mxCell>
        <mxCell id="GnVWnsMx5IgDR0cQtzLm-21" style="edgeStyle=orthogonalEdgeStyle;orthogonalLoop=1;jettySize=auto;html=1;exitX=0.5;exitY=0;exitDx=0;exitDy=0;exitPerimeter=0;entryX=0.5;entryY=0;entryDx=0;entryDy=0;curved=1;shape=flexArrow;" edge="1" parent="GnVWnsMx5IgDR0cQtzLm-22" source="GnVWnsMx5IgDR0cQtzLm-1" target="GnVWnsMx5IgDR0cQtzLm-19">
          <mxGeometry relative="1" as="geometry">
            <Array as="points">
              <mxPoint x="185" y="85" />
              <mxPoint x="185" y="80" />
              <mxPoint x="165" y="80" />
              <mxPoint x="165" y="56" />
              <mxPoint x="62" y="56" />
            </Array>
          </mxGeometry>
        </mxCell>
        <mxCell id="GnVWnsMx5IgDR0cQtzLm-23" value="" style="group" vertex="1" connectable="0" parent="GnVWnsMx5IgDR0cQtzLm-49">
          <mxGeometry width="290" height="191" as="geometry" />
        </mxCell>
        <mxCell id="GnVWnsMx5IgDR0cQtzLm-24" value="&lt;b&gt;&lt;font style=&quot;font-size: 15px&quot;&gt;&amp;nbsp; &amp;nbsp; &amp;nbsp;Thread 1&lt;/font&gt;&lt;/b&gt;" style="rounded=0;whiteSpace=wrap;html=1;align=right;" vertex="1" parent="GnVWnsMx5IgDR0cQtzLm-23">
          <mxGeometry x="-1" y="-10" width="291" height="201" as="geometry" />
        </mxCell>
        <mxCell id="GnVWnsMx5IgDR0cQtzLm-25" value="&lt;font size=&quot;1&quot;&gt;&lt;b&gt;Message Queue&lt;/b&gt;&lt;/font&gt;" style="shape=cylinder3;whiteSpace=wrap;html=1;boundedLbl=1;backgroundOutline=1;size=15;direction=north;" vertex="1" parent="GnVWnsMx5IgDR0cQtzLm-23">
          <mxGeometry x="75" y="10" width="77.25" height="50" as="geometry" />
        </mxCell>
        <mxCell id="GnVWnsMx5IgDR0cQtzLm-26" value="&lt;b&gt;Task 1&lt;/b&gt;" style="shape=process;whiteSpace=wrap;html=1;backgroundOutline=1;" vertex="1" parent="GnVWnsMx5IgDR0cQtzLm-23">
          <mxGeometry x="20" y="110" width="93.75" height="38" as="geometry" />
        </mxCell>
        <mxCell id="GnVWnsMx5IgDR0cQtzLm-27" style="edgeStyle=orthogonalEdgeStyle;rounded=0;orthogonalLoop=1;jettySize=auto;html=1;exitX=0.5;exitY=0;exitDx=0;exitDy=0;exitPerimeter=0;entryX=0.5;entryY=0;entryDx=0;entryDy=0;shape=flexArrow;" edge="1" parent="GnVWnsMx5IgDR0cQtzLm-23" source="GnVWnsMx5IgDR0cQtzLm-25" target="GnVWnsMx5IgDR0cQtzLm-26">
          <mxGeometry relative="1" as="geometry">
            <Array as="points">
              <mxPoint x="67" y="35" />
            </Array>
          </mxGeometry>
        </mxCell>
        <mxCell id="GnVWnsMx5IgDR0cQtzLm-48" style="edgeStyle=orthogonalEdgeStyle;rounded=0;orthogonalLoop=1;jettySize=auto;html=1;exitX=0.5;exitY=1;exitDx=0;exitDy=0;entryX=0.5;entryY=1;entryDx=0;entryDy=0;entryPerimeter=0;dashed=1;" edge="1" parent="GnVWnsMx5IgDR0cQtzLm-49" source="GnVWnsMx5IgDR0cQtzLm-19" target="GnVWnsMx5IgDR0cQtzLm-25">
          <mxGeometry relative="1" as="geometry">
            <Array as="points">
              <mxPoint x="95" y="338" />
              <mxPoint x="95" y="430" />
              <mxPoint x="315" y="430" />
              <mxPoint x="315" y="39" />
            </Array>
          </mxGeometry>
        </mxCell>
        <mxCell id="GnVWnsMx5IgDR0cQtzLm-65" style="edgeStyle=orthogonalEdgeStyle;rounded=0;orthogonalLoop=1;jettySize=auto;html=1;exitX=0.5;exitY=1;exitDx=0;exitDy=0;entryX=0.5;entryY=1;entryDx=0;entryDy=0;entryPerimeter=0;strokeWidth=1;dashed=1;" edge="1" parent="GnVWnsMx5IgDR0cQtzLm-49" source="GnVWnsMx5IgDR0cQtzLm-26" target="GnVWnsMx5IgDR0cQtzLm-1">
          <mxGeometry relative="1" as="geometry">
            <Array as="points">
              <mxPoint x="67" y="200" />
              <mxPoint x="305" y="200" />
              <mxPoint x="305" y="295" />
            </Array>
          </mxGeometry>
        </mxCell>
        <mxCell id="GnVWnsMx5IgDR0cQtzLm-55" style="edgeStyle=orthogonalEdgeStyle;rounded=0;orthogonalLoop=1;jettySize=auto;html=1;exitX=1;exitY=0.5;exitDx=0;exitDy=0;strokeWidth=2;" edge="1" parent="1" source="GnVWnsMx5IgDR0cQtzLm-52" target="GnVWnsMx5IgDR0cQtzLm-24">
          <mxGeometry relative="1" as="geometry">
            <Array as="points">
              <mxPoint x="372" y="550" />
              <mxPoint x="372" y="346" />
            </Array>
          </mxGeometry>
        </mxCell>
        <mxCell id="GnVWnsMx5IgDR0cQtzLm-71" style="edgeStyle=orthogonalEdgeStyle;rounded=0;orthogonalLoop=1;jettySize=auto;html=1;strokeWidth=2;" edge="1" parent="1" source="GnVWnsMx5IgDR0cQtzLm-52">
          <mxGeometry relative="1" as="geometry">
            <mxPoint x="420" y="575" as="targetPoint" />
          </mxGeometry>
        </mxCell>
        <mxCell id="GnVWnsMx5IgDR0cQtzLm-52" value="&lt;font style=&quot;font-size: 26px&quot;&gt;Main thread&lt;/font&gt;" style="whiteSpace=wrap;html=1;aspect=fixed;" vertex="1" parent="1">
          <mxGeometry x="100" y="460" width="230" height="230" as="geometry" />
        </mxCell>
        <mxCell id="GnVWnsMx5IgDR0cQtzLm-60" value="&lt;b&gt;&lt;font style=&quot;font-size: 15px&quot;&gt;&amp;nbsp; &amp;nbsp; &amp;nbsp;Thread 3&lt;/font&gt;&lt;/b&gt;" style="rounded=0;whiteSpace=wrap;html=1;align=right;" vertex="1" parent="1">
          <mxGeometry x="410" y="710" width="300" height="230" as="geometry" />
        </mxCell>
        <mxCell id="GnVWnsMx5IgDR0cQtzLm-66" style="edgeStyle=orthogonalEdgeStyle;rounded=0;orthogonalLoop=1;jettySize=auto;html=1;exitX=1;exitY=0.5;exitDx=0;exitDy=0;dashed=1;strokeWidth=1;" edge="1" parent="1" source="GnVWnsMx5IgDR0cQtzLm-61">
          <mxGeometry relative="1" as="geometry">
            <mxPoint x="685" y="545" as="targetPoint" />
            <Array as="points">
              <mxPoint x="770" y="749" />
              <mxPoint x="770" y="560" />
              <mxPoint x="685" y="560" />
            </Array>
          </mxGeometry>
        </mxCell>
        <mxCell id="GnVWnsMx5IgDR0cQtzLm-67" style="edgeStyle=orthogonalEdgeStyle;rounded=0;orthogonalLoop=1;jettySize=auto;html=1;exitX=1;exitY=0.5;exitDx=0;exitDy=0;entryX=0.5;entryY=1;entryDx=0;entryDy=0;entryPerimeter=0;dashed=1;strokeWidth=1;" edge="1" parent="1" source="GnVWnsMx5IgDR0cQtzLm-61" target="GnVWnsMx5IgDR0cQtzLm-25">
          <mxGeometry relative="1" as="geometry">
            <Array as="points">
              <mxPoint x="790" y="749" />
              <mxPoint x="790" y="280" />
              <mxPoint x="580" y="280" />
            </Array>
          </mxGeometry>
        </mxCell>
        <mxCell id="GnVWnsMx5IgDR0cQtzLm-61" value="&lt;b&gt;Task 3&lt;/b&gt;" style="shape=process;whiteSpace=wrap;html=1;backgroundOutline=1;" vertex="1" parent="1">
          <mxGeometry x="600" y="730" width="93.75" height="38" as="geometry" />
        </mxCell>
        <mxCell id="GnVWnsMx5IgDR0cQtzLm-70" style="edgeStyle=orthogonalEdgeStyle;rounded=0;orthogonalLoop=1;jettySize=auto;html=1;exitX=0.5;exitY=0;exitDx=0;exitDy=0;exitPerimeter=0;entryX=0;entryY=0.5;entryDx=0;entryDy=0;strokeWidth=1;shape=flexArrow;" edge="1" parent="1" source="GnVWnsMx5IgDR0cQtzLm-62" target="GnVWnsMx5IgDR0cQtzLm-61">
          <mxGeometry relative="1" as="geometry">
            <Array as="points">
              <mxPoint x="420" y="787" />
              <mxPoint x="420" y="748" />
              <mxPoint x="551" y="748" />
              <mxPoint x="551" y="749" />
            </Array>
          </mxGeometry>
        </mxCell>
        <mxCell id="GnVWnsMx5IgDR0cQtzLm-62" value="&lt;font size=&quot;1&quot;&gt;&lt;b&gt;Message Queue&lt;/b&gt;&lt;/font&gt;" style="shape=cylinder3;whiteSpace=wrap;html=1;boundedLbl=1;backgroundOutline=1;size=15;direction=north;align=center;" vertex="1" parent="1">
          <mxGeometry x="420" y="790" width="80" height="52" as="geometry" />
        </mxCell>
        <mxCell id="GnVWnsMx5IgDR0cQtzLm-68" style="edgeStyle=orthogonalEdgeStyle;rounded=0;orthogonalLoop=1;jettySize=auto;html=1;exitX=0.5;exitY=1;exitDx=0;exitDy=0;entryX=0.5;entryY=1;entryDx=0;entryDy=0;entryPerimeter=0;dashed=1;strokeWidth=1;" edge="1" parent="1" source="GnVWnsMx5IgDR0cQtzLm-19" target="GnVWnsMx5IgDR0cQtzLm-62">
          <mxGeometry relative="1" as="geometry">
            <Array as="points">
              <mxPoint x="510" y="588" />
              <mxPoint x="510" y="816" />
            </Array>
          </mxGeometry>
        </mxCell>
        <mxCell id="GnVWnsMx5IgDR0cQtzLm-69" style="edgeStyle=orthogonalEdgeStyle;rounded=0;orthogonalLoop=1;jettySize=auto;html=1;exitX=1;exitY=0.5;exitDx=0;exitDy=0;entryX=0.145;entryY=1;entryDx=0;entryDy=-4.35;entryPerimeter=0;dashed=1;strokeWidth=1;" edge="1" parent="1" source="GnVWnsMx5IgDR0cQtzLm-26" target="GnVWnsMx5IgDR0cQtzLm-62">
          <mxGeometry relative="1" as="geometry">
            <Array as="points">
              <mxPoint x="820" y="379" />
              <mxPoint x="820" y="834" />
            </Array>
          </mxGeometry>
        </mxCell>
        <mxCell id="GnVWnsMx5IgDR0cQtzLm-72" style="edgeStyle=orthogonalEdgeStyle;rounded=0;orthogonalLoop=1;jettySize=auto;html=1;strokeWidth=2;" edge="1" parent="1">
          <mxGeometry relative="1" as="geometry">
            <mxPoint x="331" y="600" as="sourcePoint" />
            <mxPoint x="410" y="786" as="targetPoint" />
            <Array as="points">
              <mxPoint x="331" y="600" />
              <mxPoint x="373" y="600" />
              <mxPoint x="373" y="786" />
            </Array>
          </mxGeometry>
        </mxCell>
      </root>
    </mxGraphModel>
  </diagram>
</mxfile>
